<svg width="134" height="40" viewBox="0 0 134 40" fill="none" xmlns="http://www.w3.org/2000/svg">
<g clip-path="url(#clip0_114_30)">
<path fill-rule="evenodd" clip-rule="evenodd" d="M33.8408 15.0419C34.5182 15.0419 35.067 15.5889 35.067 16.2635V29.3972C35.067 29.8335 34.8333 30.2366 34.454 30.4552L18.1443 39.8366C17.9549 39.9458 17.7429 40 17.5313 40C17.3198 40 17.1084 39.9458 16.9193 39.837L0.614147 30.4768C0.234401 30.2587 0 29.8553 0 29.4184V16.2909C0 15.6163 0.549316 15.0692 1.22668 15.0692C1.90381 15.0692 2.45243 15.6163 2.45243 16.2909V28.7125L17.5306 37.3677L32.6146 28.6916V16.2635C32.6146 15.5889 33.1635 15.0419 33.8408 15.0419ZM62.5042 11.2349C64.8337 11.2349 66.7288 13.1229 66.7288 15.4437V18.1075C66.7288 20.0803 65.357 22.254 63.5143 22.707L66.552 28.5115C66.9341 29.2077 66.675 30.0816 65.9776 30.4647C65.1436 30.9231 64.3065 30.4629 64.0172 29.8924L60.2915 22.8337H57.347V29.1295C57.347 29.9232 56.6989 30.5684 55.9025 30.5684C55.1059 30.5684 54.4581 29.9232 54.4581 29.1295V15.4437C54.4581 13.1229 56.3531 11.2349 58.6826 11.2349H62.5042ZM90.601 11.2491C91.3972 11.2491 92.0455 11.8948 92.0455 12.6884V29.1437C92.0455 29.9374 91.3972 30.5828 90.601 30.5828C89.8046 30.5828 89.1563 29.9374 89.1563 29.1437V12.6884C89.1563 11.8948 89.8046 11.2491 90.601 11.2491ZM95.9157 11.2491C96.4308 11.2491 96.9107 11.5256 97.1682 11.9708L103.853 24.5899V12.6884C103.853 11.8948 104.501 11.2491 105.297 11.2491C106.094 11.2491 106.742 11.8948 106.742 12.6884V29.1437C106.742 29.7944 106.303 30.3727 105.67 30.5343C105.322 30.6228 104.503 30.6556 104.045 29.8608L97.3604 17.8194V29.1437C97.3604 29.9374 96.7121 30.5828 95.9157 30.5828C95.1195 30.5828 94.4712 29.9374 94.4712 29.1437V12.6884C94.4712 11.2539 95.7902 11.2491 95.9157 11.2491ZM125.219 11.2491C126.015 11.2491 126.663 11.8945 126.663 12.6882V27.7043H132.556C133.352 27.7043 134 28.3502 134 29.1439C134 29.9373 133.352 30.5827 132.556 30.5827H125.219C124.422 30.5827 123.774 29.9373 123.774 29.1439V12.6882C123.774 11.8945 124.422 11.2491 125.219 11.2491ZM47.8104 11.2349C50.1399 11.2349 52.0349 13.1229 52.0349 15.4437V26.3598C52.0349 28.6806 50.1399 30.5686 47.8104 30.5686H43.9887C41.6593 30.5686 39.7642 28.6806 39.7642 26.3598V15.4437C39.7642 13.1229 41.6593 11.2349 43.9887 11.2349H47.8104ZM70.5963 11.2349C71.3927 11.2349 72.0407 11.8805 72.0407 12.674V29.1294C72.0407 29.9229 71.3927 30.5685 70.5963 30.5685C69.7999 30.5685 69.1518 29.9229 69.1518 29.1294V12.674C69.1518 11.8805 69.7999 11.2349 70.5963 11.2349ZM82.5097 11.2349C84.8389 11.2349 86.7344 13.1229 86.7344 15.444C86.7344 16.2372 86.0861 16.8828 85.2897 16.8828C84.4931 16.8828 83.8452 16.2372 83.8452 15.444C83.8452 14.7101 83.2461 14.1131 82.5097 14.1131H78.688C77.9518 14.1131 77.3524 14.7101 77.3524 15.444V26.3598C77.3524 27.0933 77.9518 27.6904 78.688 27.6904H82.5097C83.2461 27.6904 83.8452 27.0933 83.8452 26.3598V22.8167H80.5987C79.8023 22.8167 79.1542 22.171 79.1542 21.3776C79.1542 20.5841 79.8023 19.9385 80.5987 19.9385L85.2895 19.9382C85.6755 19.9382 86.0384 20.0881 86.3113 20.3598C86.584 20.6315 86.7344 20.993 86.7344 21.3773V26.3598C86.7344 28.6804 84.8389 30.5688 82.5097 30.5688H78.688C76.3585 30.5688 74.4635 28.6804 74.4635 26.3598V15.444C74.4635 13.1229 76.3585 11.2349 78.688 11.2349H82.5097ZM117.17 11.2491C119.491 11.2475 121.378 13.0641 121.379 15.8025V29.087C121.379 29.9397 120.731 30.5582 119.935 30.5582C119.138 30.5582 118.491 29.9128 118.491 29.1194V22.8304H112.048V29.1194C112.048 29.9128 111.4 30.5582 110.603 30.5582C109.807 30.5582 109.159 29.9128 109.159 29.1194V15.4432C109.159 13.1302 111.047 11.2491 113.368 11.2491H117.17ZM47.8104 14.1131H43.9887C43.2523 14.1131 42.6532 14.71 42.6532 15.4437V26.3598C42.6532 27.0932 43.2523 27.6904 43.9887 27.6904H47.8104C48.5468 27.6904 49.146 27.0932 49.146 26.3598V15.4437C49.146 14.71 48.5468 14.1131 47.8104 14.1131ZM16.9218 0.1642C17.3014 -0.0546177 17.7695 -0.0546187 18.149 0.16351L34.4541 9.54211C34.8334 9.76047 35.0671 10.1639 35.0671 10.6001C35.0671 11.0366 34.8334 11.44 34.4541 11.6584L18.1446 21.0397C17.955 21.1487 17.7429 21.2031 17.5311 21.2031C17.3198 21.2031 17.1087 21.1487 16.9193 21.0402L0.614193 11.6804C0.234446 11.4623 0.000737976 11.0591 4.57764e-05 10.6229C4.57764e-05 10.1864 0.233294 9.78277 0.612579 9.56418L16.9218 0.1642ZM62.5042 14.1131H58.6826C57.9461 14.1131 57.347 14.7101 57.347 15.4437V19.9555H62.5042C63.2407 19.9555 63.8398 18.8409 63.8398 18.1075V15.4437C63.8398 14.7101 63.2407 14.1131 62.5042 14.1131ZM117.17 14.1276H113.368C112.64 14.1276 112.048 14.7176 112.048 15.4432V19.9525H118.491V15.4432C118.491 14.7176 117.898 14.1276 117.17 14.1276ZM17.5364 2.63257L3.67916 10.6197L17.5307 18.5709L31.3884 10.6001L17.5364 2.63257ZM56.7315 2.92124C57.8329 2.92078 58.7283 3.78272 58.7292 5.08253V8.00186C58.7292 8.40686 58.4216 8.70015 58.0437 8.70015C57.6658 8.70015 57.3583 8.39376 57.3583 8.01726V4.91198C57.3583 4.56766 57.0771 4.28747 56.7315 4.28747H54.9273C54.5817 4.28747 54.3005 4.56766 54.3005 4.91198V8.01726C54.3005 8.39376 53.993 8.70015 53.6151 8.70015C53.2372 8.70015 52.9296 8.39376 52.9296 8.01726V4.91198C52.9296 3.81444 53.8257 2.92124 54.9273 2.92124H56.7315ZM50.1187 2.92144C51.2204 2.92144 52.1167 3.81419 52.1167 4.91172V6.70916C52.1171 7.80669 51.2522 8.69875 49.9475 8.69944H48.2518C48.175 8.69944 48.1039 8.68541 48.0363 8.66519C47.1227 8.4974 46.4262 7.70924 46.4034 6.75651C46.4285 5.68173 47.2854 4.81633 48.5702 4.81541H50.7356C50.6888 4.51707 50.4311 4.28722 50.1187 4.28722H47.293C46.9149 4.28722 46.6076 3.98106 46.6076 3.60433C46.6076 3.22784 46.9149 2.92144 47.293 2.92144H50.1187ZM64.3564 2.92188C64.7627 2.92188 65.0573 3.22804 65.0573 3.60477C65.0573 3.98126 64.7498 4.28766 64.3719 4.28766H61.5461C61.2005 4.28766 60.9193 4.56784 60.9193 4.91216V6.7096C60.9193 7.05391 61.2005 7.3341 61.5461 7.3341H64.3719C64.7498 7.3341 65.0573 7.64026 65.0573 8.01699C65.0573 8.39348 64.7498 8.69987 64.3719 8.69987H61.5461C60.4443 8.69987 59.5482 7.80713 59.5482 6.7096V4.91216C59.5475 3.81462 60.4129 2.92257 61.7173 2.92188H64.3564ZM69.7074 2.92168C70.8091 2.92168 71.7051 3.81441 71.7051 4.91218V6.70939C71.7058 7.80693 70.8407 8.69898 69.5362 8.6999H67.8985C66.7971 8.6999 65.9007 7.80716 65.9007 6.70962V4.91218C65.9 3.81464 66.7652 2.9226 68.0696 2.92191L69.7074 2.92168ZM42.9317 0.0495267C43.9726 0.0495267 44.8193 0.89331 44.8193 1.9304V2.69603C44.8193 3.83839 44.127 3.90987 44.127 3.90987C44.127 3.90987 45.7708 4.08249 45.7708 5.62433V6.8145C45.7708 7.85159 44.9241 8.69514 43.8831 8.69514L41.6519 8.69537C40.1055 8.69537 39.7643 8.26762 39.7643 6.8145L39.7649 1.76521C39.7765 0.427369 39.9544 0.0495267 41.3617 0.0495267H42.9317ZM43.8831 4.76607H43.0191L42.844 4.77572H41.0553V6.8145C41.0553 7.28431 41.1656 7.40912 41.6519 7.40912H43.8831C44.2121 7.40912 44.48 7.14227 44.48 6.8145V5.59192C44.48 5.26416 44.2121 4.76607 43.8831 4.76607ZM69.7074 4.28768H67.8985C67.5531 4.28768 67.2718 4.56764 67.2718 4.91218V6.70962C67.2718 7.05393 67.5531 7.33412 67.8985 7.33412H68.161L68.1626 7.33389H69.7074C70.053 7.33389 70.334 7.05394 70.334 6.70939V4.91218C70.334 4.56764 70.053 4.28768 69.7074 4.28768ZM50.7456 6.18119H48.3988C48.0698 6.18119 47.8019 6.43587 47.7768 6.75743C47.8019 7.07899 48.0698 7.33366 48.3988 7.33366H50.1187C50.4643 7.33366 50.7456 7.05347 50.7456 6.70916V6.18119ZM42.9317 1.33577H41.3617C40.8851 1.33577 41.0553 1.453 41.0553 1.9304V3.51223H42.2799L42.5351 3.52189H42.9317C43.2607 3.52189 43.5283 3.0238 43.5283 2.69603V1.9304C43.5283 1.60263 43.2607 1.33577 42.9317 1.33577Z" fill="#00A857"/>
</g>
<defs>
<clipPath id="clip0_114_30">
<rect width="134" height="40" fill="white"/>
</clipPath>
</defs>
</svg>
