<svg width="27" height="32" viewBox="0 0 27 32" fill="none" xmlns="http://www.w3.org/2000/svg">
<g clip-path="url(#clip0_429_337)">
<path d="M13.4999 0.571411C12.4331 0.571411 11.5713 1.43324 11.5713 2.49998V3.65713C7.17175 4.54909 3.85702 8.44239 3.85702 13.1071V14.6379C3.85702 17.3741 2.92286 20.0319 1.21728 22.1654L0.319293 23.2924C-0.0302609 23.7263 -0.0965555 24.323 0.144516 24.8232C0.385587 25.3234 0.891837 25.6428 1.4463 25.6428H25.5534C26.1079 25.6428 26.6142 25.3234 26.8552 24.8232C27.0963 24.323 27.03 23.7263 26.6805 23.2924L25.7825 22.1714C24.0769 20.0319 23.1427 17.3741 23.1427 14.6379V13.1071C23.1427 8.44239 19.828 4.54909 15.4284 3.65713V2.49998C15.4284 1.43324 14.5666 0.571411 13.4999 0.571411ZM13.4999 6.35713C17.2305 6.35713 20.2499 9.37654 20.2499 13.1071V14.6379C20.2499 17.5248 21.0876 20.3393 22.6425 22.75H4.35724C5.91215 20.3393 6.74987 17.5248 6.74987 14.6379V13.1071C6.74987 9.37654 9.76929 6.35713 13.4999 6.35713ZM17.357 27.5714H13.4999H9.64273C9.64273 28.596 10.0465 29.5783 10.7697 30.3015C11.493 31.0248 12.4753 31.4286 13.4999 31.4286C14.5244 31.4286 15.5068 31.0248 16.23 30.3015C16.9532 29.5783 17.357 28.596 17.357 27.5714Z" fill="url(#paint0_linear_429_337)"/>
</g>
<defs>
<linearGradient id="paint0_linear_429_337" x1="13.4999" y1="0.571411" x2="13.4999" y2="31.4286" gradientUnits="userSpaceOnUse">
<stop stop-color="#0073FC"/>
<stop offset="0.82" stop-color="#556AFE"/>
<stop offset="1" stop-color="#8266FF"/>
</linearGradient>
<clipPath id="clip0_429_337">
<rect width="27" height="30.8571" fill="white" transform="translate(0 0.571411)"/>
</clipPath>
</defs>
</svg>
