<svg width="30" height="24" viewBox="0 0 30 24" fill="none" xmlns="http://www.w3.org/2000/svg">
<path d="M0 2.625C0 1.58789 0.837891 0.75 1.875 0.75H24.375C25.4121 0.75 26.25 1.58789 26.25 2.625C26.25 3.66211 25.4121 4.5 24.375 4.5H1.875C0.837891 4.5 0 3.66211 0 2.625ZM3.75 12C3.75 10.9629 4.58789 10.125 5.625 10.125H28.125C29.1621 10.125 30 10.9629 30 12C30 13.0371 29.1621 13.875 28.125 13.875H5.625C4.58789 13.875 3.75 13.0371 3.75 12ZM26.25 21.375C26.25 22.4121 25.4121 23.25 24.375 23.25H1.875C0.837891 23.25 0 22.4121 0 21.375C0 20.3379 0.837891 19.5 1.875 19.5H24.375C25.4121 19.5 26.25 20.3379 26.25 21.375Z" fill="url(#paint0_linear_429_321)"/>
<defs>
<linearGradient id="paint0_linear_429_321" x1="15" y1="0.75" x2="15" y2="23.25" gradientUnits="userSpaceOnUse">
<stop stop-color="#0073FC"/>
<stop offset="0.82" stop-color="#556AFE"/>
<stop offset="1" stop-color="#8266FF"/>
</linearGradient>
</defs>
</svg>
