<svg width="37" height="36" viewBox="0 0 37 36" fill="none" xmlns="http://www.w3.org/2000/svg">
<path d="M8.5 0.671509H2.5C1.672 0.671509 1 1.33455 1 2.15245V8.0762C1 8.89413 1.672 9.55714 2.5 9.55714H8.5C9.328 9.55714 10 8.89413 10 8.0762V2.15245C10 1.33455 9.328 0.671509 8.5 0.671509Z" fill="url(#paint0_linear_429_324)"/>
<path d="M21.5 0.671509H15.5C14.672 0.671509 14 1.33455 14 2.15245V8.0762C14 8.89413 14.672 9.55714 15.5 9.55714H21.5C22.328 9.55714 23 8.89413 23 8.0762V2.15245C23 1.33455 22.328 0.671509 21.5 0.671509Z" fill="url(#paint1_linear_429_324)"/>
<path d="M34.5 0.671509H28.5C27.672 0.671509 27 1.33455 27 2.15245V8.0762C27 8.89413 27.672 9.55714 28.5 9.55714H34.5C35.328 9.55714 36 8.89413 36 8.0762V2.15245C36 1.33455 35.328 0.671509 34.5 0.671509Z" fill="url(#paint2_linear_429_324)"/>
<path d="M8.5 13.5571H2.5C1.672 13.5571 1 14.2202 1 15.0381V20.9618C1 21.7797 1.672 22.4428 2.5 22.4428H8.5C9.328 22.4428 10 21.7797 10 20.9618V15.0381C10 14.2202 9.328 13.5571 8.5 13.5571Z" fill="url(#paint3_linear_429_324)"/>
<path d="M21.5 13.5571H15.5C14.672 13.5571 14 14.2202 14 15.0381V20.9618C14 21.7797 14.672 22.4428 15.5 22.4428H21.5C22.328 22.4428 23 21.7797 23 20.9618V15.0381C23 14.2202 22.328 13.5571 21.5 13.5571Z" fill="url(#paint4_linear_429_324)"/>
<path d="M34.5 13.5571H28.5C27.672 13.5571 27 14.2202 27 15.0381V20.9618C27 21.7797 27.672 22.4428 28.5 22.4428H34.5C35.328 22.4428 36 21.7797 36 20.9618V15.0381C36 14.2202 35.328 13.5571 34.5 13.5571Z" fill="url(#paint5_linear_429_324)"/>
<path d="M8.5 26.4429H2.5C1.672 26.4429 1 27.1059 1 27.9238V33.8476C1 34.6655 1.672 35.3285 2.5 35.3285H8.5C9.328 35.3285 10 34.6655 10 33.8476V27.9238C10 27.1059 9.328 26.4429 8.5 26.4429Z" fill="url(#paint6_linear_429_324)"/>
<path d="M21.5 26.4429H15.5C14.672 26.4429 14 27.1059 14 27.9238V33.8476C14 34.6655 14.672 35.3285 15.5 35.3285H21.5C22.328 35.3285 23 34.6655 23 33.8476V27.9238C23 27.1059 22.328 26.4429 21.5 26.4429Z" fill="url(#paint7_linear_429_324)"/>
<path d="M34.5 26.4429H28.5C27.672 26.4429 27 27.1059 27 27.9238V33.8476C27 34.6655 27.672 35.3285 28.5 35.3285H34.5C35.328 35.3285 36 34.6655 36 33.8476V27.9238C36 27.1059 35.328 26.4429 34.5 26.4429Z" fill="url(#paint8_linear_429_324)"/>
<defs>
<linearGradient id="paint0_linear_429_324" x1="5.5" y1="0.671509" x2="5.5" y2="9.55714" gradientUnits="userSpaceOnUse">
<stop stop-color="#0073FC"/>
<stop offset="0.82" stop-color="#556AFE"/>
<stop offset="1" stop-color="#8266FF"/>
</linearGradient>
<linearGradient id="paint1_linear_429_324" x1="18.5" y1="0.671509" x2="18.5" y2="9.55714" gradientUnits="userSpaceOnUse">
<stop stop-color="#0073FC"/>
<stop offset="0.82" stop-color="#556AFE"/>
<stop offset="1" stop-color="#8266FF"/>
</linearGradient>
<linearGradient id="paint2_linear_429_324" x1="31.5" y1="0.671509" x2="31.5" y2="9.55714" gradientUnits="userSpaceOnUse">
<stop stop-color="#0073FC"/>
<stop offset="0.82" stop-color="#556AFE"/>
<stop offset="1" stop-color="#8266FF"/>
</linearGradient>
<linearGradient id="paint3_linear_429_324" x1="5.5" y1="13.5571" x2="5.5" y2="22.4428" gradientUnits="userSpaceOnUse">
<stop stop-color="#0073FC"/>
<stop offset="0.82" stop-color="#556AFE"/>
<stop offset="1" stop-color="#8266FF"/>
</linearGradient>
<linearGradient id="paint4_linear_429_324" x1="18.5" y1="13.5571" x2="18.5" y2="22.4428" gradientUnits="userSpaceOnUse">
<stop stop-color="#0073FC"/>
<stop offset="0.82" stop-color="#556AFE"/>
<stop offset="1" stop-color="#8266FF"/>
</linearGradient>
<linearGradient id="paint5_linear_429_324" x1="31.5" y1="13.5571" x2="31.5" y2="22.4428" gradientUnits="userSpaceOnUse">
<stop stop-color="#0073FC"/>
<stop offset="0.82" stop-color="#556AFE"/>
<stop offset="1" stop-color="#8266FF"/>
</linearGradient>
<linearGradient id="paint6_linear_429_324" x1="5.5" y1="26.4429" x2="5.5" y2="35.3285" gradientUnits="userSpaceOnUse">
<stop stop-color="#0073FC"/>
<stop offset="0.82" stop-color="#556AFE"/>
<stop offset="1" stop-color="#8266FF"/>
</linearGradient>
<linearGradient id="paint7_linear_429_324" x1="18.5" y1="26.4429" x2="18.5" y2="35.3285" gradientUnits="userSpaceOnUse">
<stop stop-color="#0073FC"/>
<stop offset="0.82" stop-color="#556AFE"/>
<stop offset="1" stop-color="#8266FF"/>
</linearGradient>
<linearGradient id="paint8_linear_429_324" x1="31.5" y1="26.4429" x2="31.5" y2="35.3285" gradientUnits="userSpaceOnUse">
<stop stop-color="#0073FC"/>
<stop offset="0.82" stop-color="#556AFE"/>
<stop offset="1" stop-color="#8266FF"/>
</linearGradient>
</defs>
</svg>
