<svg width="120" height="40" viewBox="0 0 120 40" fill="none" xmlns="http://www.w3.org/2000/svg">
<mask id="mask0_114_12" style="mask-type:luminance" maskUnits="userSpaceOnUse" x="0" y="0" width="120" height="39">
<path d="M0.344849 0.176544H119.653V38.7972H0.344849V0.176544Z" fill="white"/>
</mask>
<g mask="url(#mask0_114_12)">
<path d="M25.0469 31.3628H30.6007V15.0455H25.0469V31.3628ZM32.5158 3.94206H28.7814V7.70758H32.5158V3.94206ZM11.5441 5.77655H6.18205V10.5076H11.1614C14.3214 10.5076 16.1407 12.0524 16.1407 14.949C16.1407 17.8455 14.3214 19.4869 11.1614 19.4869H6.18205V10.6041H0.627563V31.3628H6.18205V24.2179H11.4483C17.8648 24.2179 21.5993 20.7421 21.5993 14.7559C21.5993 9.15585 17.96 5.77655 11.5441 5.77655ZM36.2503 0.176544H25.0469V11.4731H36.2503V0.176544ZM34.431 9.54206H26.962V2.01103H34.431V9.54206ZM66.9896 5.77655H61.9138V10.5076H66.702C69.862 10.5076 71.682 12.0524 71.682 14.949C71.682 17.8455 69.862 19.4869 66.7027 19.4869H61.9145V10.6041H56.36V31.3628H61.9145V24.2179H66.9896C73.4055 24.2179 77.14 20.7421 77.14 14.7559C77.14 9.15585 73.4055 5.77655 66.9896 5.77655ZM113.625 11.7628L108.837 23.9283L104.049 11.7628H98.3034L105.964 31.3628L102.995 38.7972H108.837L119.37 11.7628H113.625ZM88.7269 11.6662C85.3758 11.6662 82.7903 12.4386 79.9172 13.8869L81.6407 17.749C83.6517 16.5903 85.6627 16.011 87.482 16.011C90.1634 16.011 91.5041 17.1696 91.5041 19.2938V19.68H86.1414C81.3538 19.68 78.7682 21.9007 78.7682 25.5696C78.7682 29.1421 81.2579 31.6524 85.471 31.6524C88.1524 31.6524 90.0676 30.6869 91.6 29.0455V31.1696H97.0586V18.4248C96.8669 14.2731 93.8979 11.6662 88.7269 11.6662ZM91.9827 24.7972C91.4082 26.4386 89.7807 27.7903 87.482 27.7903C85.5669 27.7903 84.4179 26.8248 84.4179 25.28C84.4179 23.7352 85.471 23.0593 87.5779 23.0593H91.9827V24.7972ZM44.7731 27.1145C42.0917 27.1145 40.1765 24.9903 40.1765 21.8041C40.1765 18.7145 42.0917 16.5903 44.7731 16.5903C46.6883 16.5903 48.1248 17.3628 49.1779 18.7145L52.9131 16.011C51.1889 13.4041 48.2207 11.8593 44.4855 11.8593C38.6441 11.7628 34.6227 15.8179 34.6227 21.8041C34.6227 27.7903 38.6448 31.749 44.4862 31.749C48.5076 31.749 51.4765 30.1076 53.1041 27.4041L49.2738 24.7972C48.3165 26.3421 46.7841 27.1145 44.7731 27.1145Z" fill="#11C76F"/>
</g>
</svg>
