<svg width="90" height="70" viewBox="0 0 90 70" fill="none" xmlns="http://www.w3.org/2000/svg">
<g clip-path="url(#clip0_114_34)">
<path d="M45 65.2732C69.8528 65.2732 90 54.2834 90 40.7267C90 27.1701 69.8528 16.1802 45 16.1802C20.1472 16.1802 0 27.1701 0 40.7267C0 54.2834 20.1472 65.2732 45 65.2732Z" fill="#E30613"/>
<path d="M16.9032 19.0147C17.3412 18.1049 18.0623 17.3616 18.9584 16.8961C19.2978 16.7367 19.6741 16.6723 20.0472 16.71C20.4203 16.7476 20.7762 16.8857 21.077 17.1097L31.7974 24.753C32.1349 24.9773 32.3981 25.2968 32.5536 25.6709C32.6236 25.8678 32.6485 26.0779 32.6265 26.2857C32.6046 26.4936 32.5362 26.6938 32.4266 26.8717L32.1091 27.449L31.7916 28.0263C31.7 28.2137 31.5673 28.378 31.4034 28.5069C31.2394 28.6359 31.0485 28.7261 30.8448 28.771C30.4535 28.8317 30.053 28.7796 29.6902 28.6209L17.4978 23.5638C17.1492 23.4273 16.8439 23.1991 16.6143 22.9034C16.3846 22.6077 16.2391 22.2555 16.1931 21.8839C16.1146 20.876 16.3637 19.8697 16.9032 19.0147ZM73.1027 19.0147C72.6628 18.1043 71.9397 17.3609 71.0417 16.8961C70.7032 16.7372 70.3279 16.6731 69.9558 16.7107C69.5837 16.7483 69.2288 16.8862 68.9289 17.1097L58.2028 24.753C57.8683 24.9791 57.6074 25.2982 57.4523 25.6709C57.3806 25.8675 57.3548 26.0779 57.3768 26.286C57.3988 26.4941 57.4681 26.6944 57.5793 26.8717L57.8968 27.449L58.2143 28.0263C58.3052 28.2142 58.4377 28.3789 58.6017 28.5079C58.7658 28.637 58.9571 28.7269 59.1611 28.771C59.5524 28.8326 59.9531 28.7805 60.3156 28.6209L72.485 23.5754C72.8336 23.4396 73.1386 23.2115 73.3675 22.9156C73.5963 22.6196 73.7402 22.267 73.7839 21.8954C73.879 20.8865 73.6397 19.8742 73.1027 19.0147ZM45.7044 22.6228C45.9198 22.6299 46.1343 22.5907 46.3335 22.5081C46.5326 22.4255 46.7118 22.3012 46.8589 22.1437C47.127 21.8144 47.2899 21.4121 47.3265 20.9891L48.9487 7.53238C48.9984 7.14704 48.9406 6.75546 48.7817 6.40092C48.6228 6.04638 48.3689 5.74268 48.0482 5.5234C47.1496 4.94926 46.0938 4.67069 45.0289 4.72674C43.9545 4.66654 42.8884 4.9452 41.9808 5.5234C41.6597 5.742 41.4058 6.04579 41.2478 6.40066C41.0897 6.75554 41.0337 7.14744 41.086 7.53238L42.6447 21.0064C42.6809 21.4306 42.8461 21.8335 43.1181 22.161C43.2646 22.3194 43.4436 22.4443 43.6429 22.527C43.8422 22.6097 44.057 22.6483 44.2727 22.6401H45.6755L45.7044 22.6228ZM38.7768 23.5119C38.9323 23.425 39.0673 23.3059 39.1729 23.1625C39.2784 23.0191 39.352 22.8548 39.3888 22.6806C39.4396 22.3602 39.3849 22.0319 39.2329 21.7453L35.036 13.1148C34.9181 12.8605 34.7311 12.6445 34.4963 12.4914C34.2615 12.3383 33.9884 12.2542 33.7082 12.2489C32.9131 12.2586 32.1399 12.5104 31.4914 12.9705C30.7937 13.3541 30.2282 13.9397 29.8692 14.6504C29.7518 14.9043 29.7079 15.186 29.7426 15.4636C29.7773 15.7412 29.8892 16.0035 30.0655 16.2206L35.9943 23.7774C36.1885 24.0391 36.4617 24.2314 36.7736 24.3258C36.9454 24.3701 37.1246 24.3765 37.2991 24.3446C37.4735 24.3127 37.6389 24.2432 37.7839 24.1411L38.263 23.8409L38.7768 23.5119ZM51.7659 23.812L52.2509 24.1122C52.3956 24.2147 52.5611 24.2844 52.7356 24.3163C52.9101 24.3482 53.0894 24.3416 53.2611 24.297C53.558 24.2035 53.8196 24.0224 54.0116 23.7774L59.9346 16.2726C60.1122 16.0561 60.2249 15.7937 60.2596 15.5158C60.2943 15.238 60.2497 14.9559 60.1309 14.7024C59.7762 13.9906 59.2121 13.4043 58.5145 13.0224C57.8726 12.5365 57.0965 12.2603 56.2919 12.2315C56.012 12.2383 55.7395 12.3228 55.5049 12.4758C55.2704 12.6287 55.0831 12.844 54.9641 13.0975L50.8019 21.7453C50.6514 22.0324 50.5987 22.3608 50.6518 22.6806C50.6863 22.8556 50.759 23.0209 50.8648 23.1646C50.9706 23.3083 51.1068 23.4269 51.2637 23.5119L51.7659 23.812Z" fill="#FFE600"/>
<path d="M74.2399 46.4997C73.694 46.51 73.1519 46.4077 72.6473 46.1991C72.1428 45.9905 71.6867 45.6801 71.3075 45.2874C70.9283 44.8946 70.6341 44.4279 70.4433 43.9164C70.2526 43.4048 70.1693 42.8594 70.1988 42.3143C70.1988 39.6876 71.9307 38.0654 74.2399 38.0654C76.549 38.0654 78.3617 39.6876 78.3617 42.3143C78.3815 42.8639 78.2889 43.4117 78.0895 43.9242C77.8902 44.4367 77.5884 44.9032 77.2025 45.295C76.8166 45.6868 76.3548 45.9958 75.8454 46.2029C75.336 46.41 74.7897 46.511 74.2399 46.4997ZM73.3681 50.3329C75.4291 50.3329 77.363 49.5824 78.3617 47.8967V49.3284C78.3537 49.413 78.3645 49.4984 78.3932 49.5784C78.422 49.6584 78.4681 49.731 78.5282 49.7912C78.5883 49.8513 78.661 49.8974 78.741 49.9261C78.821 49.9549 78.9063 49.9657 78.991 49.9577H81.7966C81.8813 49.9657 81.9666 49.9549 82.0466 49.9261C82.1266 49.8974 82.1992 49.8513 82.2594 49.7912C82.3195 49.731 82.3656 49.6584 82.3944 49.5784C82.4231 49.4984 82.4339 49.413 82.4259 49.3284V35.2136C82.433 35.1294 82.4216 35.0447 82.3924 34.9654C82.3632 34.8861 82.317 34.8142 82.257 34.7548C82.197 34.6953 82.1246 34.6498 82.0451 34.6213C81.9655 34.5929 81.8807 34.5822 81.7966 34.5901H78.991C78.9069 34.5822 78.8221 34.5929 78.7425 34.6213C78.663 34.6498 78.5906 34.6953 78.5306 34.7548C78.4706 34.8142 78.4244 34.8861 78.3952 34.9654C78.366 35.0447 78.3546 35.1294 78.3617 35.2136V36.628C77.7872 35.8539 77.0314 35.2328 76.1607 34.8191C75.29 34.4054 74.3311 34.2118 73.3681 34.2553C69.1193 34.2553 65.9326 37.5054 65.9326 42.3374C65.9326 47.1693 69.1193 50.3329 73.3681 50.3329ZM65.3726 37.9384C65.7213 37.1573 66.1801 36.4303 66.735 35.7793C66.8034 35.706 66.8539 35.6179 66.8827 35.5219C66.9114 35.4258 66.9177 35.3245 66.9009 35.2256C66.8842 35.1268 66.8449 35.0332 66.7861 34.952C66.7273 34.8708 66.6505 34.8043 66.5619 34.7575C65.9451 34.5157 65.2836 34.4094 64.6221 34.4458C63.0635 34.4458 61.0025 34.8788 59.7498 36.755L59.3745 37.3323V35.2136C59.3816 35.1299 59.3702 35.0458 59.3414 34.9669C59.3125 34.8881 59.2668 34.8165 59.2075 34.7572C59.1481 34.6978 59.0765 34.6521 58.9977 34.6233C58.9189 34.5944 58.8347 34.5831 58.7511 34.5901H55.8646C55.7805 34.5822 55.6957 34.5929 55.6161 34.6213C55.5366 34.6498 55.4643 34.6953 55.4043 34.7548C55.3443 34.8142 55.298 34.8861 55.2688 34.9654C55.2397 35.0447 55.2282 35.1294 55.2354 35.2136V49.3053C55.2273 49.3899 55.2381 49.4753 55.2669 49.5553C55.2957 49.6353 55.3418 49.7079 55.4019 49.7681C55.462 49.8282 55.5346 49.8743 55.6146 49.9031C55.6946 49.9318 55.78 49.9426 55.8646 49.9346H58.7511C58.8352 49.9417 58.92 49.9303 58.9992 49.9011C59.0785 49.8719 59.1504 49.8257 59.2099 49.7657C59.2693 49.7056 59.3149 49.6333 59.3433 49.5538C59.3718 49.4742 59.3825 49.3894 59.3745 49.3053V43.4342C59.3745 40.4381 61.0602 38.6254 63.6234 38.6254C64.6856 38.6254 64.9974 38.8159 65.3726 37.9384ZM45.0288 46.4997C42.7774 46.4997 41.0917 44.8082 41.0917 42.3143C41.0917 39.6876 42.7774 38.0654 45.0288 38.0654C47.2803 38.0654 49.1507 39.6876 49.1507 42.3143C49.1704 42.8639 49.0778 43.4117 48.8785 43.9242C48.6792 44.4367 48.3773 44.9032 47.9915 45.295C47.6056 45.6868 47.1438 45.9958 46.6344 46.2029C46.125 46.41 45.5786 46.511 45.0288 46.4997ZM44.134 50.3329C46.2007 50.3329 48.1347 49.5824 49.1334 47.8967V49.3284C49.1255 49.4125 49.1361 49.4973 49.1646 49.5769C49.193 49.6564 49.2386 49.7287 49.298 49.7887C49.3575 49.8488 49.4294 49.895 49.5087 49.9242C49.588 49.9534 49.6727 49.9648 49.7568 49.9577H52.5683C52.6524 49.9648 52.7372 49.9534 52.8164 49.9242C52.8957 49.895 52.9676 49.8488 53.0271 49.7887C53.0865 49.7287 53.1321 49.6564 53.1605 49.5769C53.189 49.4973 53.1996 49.4125 53.1917 49.3284V35.2136C53.1987 35.1299 53.1874 35.0458 53.1586 34.9669C53.1297 34.8881 53.084 34.8165 53.0247 34.7572C52.9653 34.6978 52.8937 34.6521 52.8149 34.6233C52.7361 34.5944 52.6519 34.5831 52.5683 34.5901H49.7568C49.6732 34.5831 49.589 34.5944 49.5102 34.6233C49.4314 34.6521 49.3598 34.6978 49.3004 34.7572C49.2411 34.8165 49.1954 34.8881 49.1665 34.9669C49.1377 35.0458 49.1264 35.1299 49.1334 35.2136V36.628C48.5583 35.8531 47.8015 35.2315 46.9298 34.8177C46.058 34.404 45.0979 34.2109 44.134 34.2553C40.093 34.2553 36.8313 37.5054 36.8313 42.3374C36.8313 47.1693 40.0756 50.3329 44.134 50.3329ZM28.8992 50.3329C31.7049 50.3329 33.7081 49.3919 35.0186 47.8332C35.0913 47.7603 35.1465 47.6719 35.1801 47.5746C35.2137 47.4772 35.2248 47.3735 35.2126 47.2713C35.2004 47.1691 35.1651 47.0709 35.1095 46.9843C35.0539 46.8976 34.9794 46.8247 34.8915 46.771L33.3329 45.397C33.2247 45.2895 33.0784 45.2292 32.9259 45.2292C32.7734 45.2292 32.627 45.2895 32.5189 45.397C31.5309 46.2986 30.2366 46.7899 28.8992 46.771C27.972 46.8206 27.0598 46.5209 26.3428 45.9309C25.6257 45.341 25.1557 44.5037 25.0256 43.5843H33.0211C34.753 43.5843 35.642 42.7126 35.642 40.8999C35.642 37.6498 33.1423 34.2784 28.4605 34.2784C24.0904 34.2784 20.9557 37.7421 20.9557 42.2104C20.9557 47.2675 24.4195 50.3329 28.8877 50.3329M12.8967 50.3329C16.8915 50.3329 19.8242 47.8332 19.8242 44.3348C19.8242 41.0847 17.8268 39.1392 13.8261 38.152C11.3264 37.5285 10.2065 37.0898 10.2065 35.7793C10.2065 34.7171 11.3899 33.9666 13.093 33.9666C14.5686 33.9717 16.0072 34.4291 17.2148 35.2771C17.2857 35.3293 17.3675 35.3646 17.4541 35.3803C17.5407 35.396 17.6297 35.3917 17.7143 35.3678C17.799 35.3438 17.8771 35.3008 17.9426 35.2421C18.0081 35.1833 18.0593 35.1104 18.0923 35.0289L19.218 33.0141C19.3207 32.8706 19.3647 32.6933 19.3411 32.5184C19.3175 32.3436 19.2281 32.1843 19.091 32.0731C17.3587 30.7852 15.2514 30.1017 13.093 30.1276C8.90758 30.1276 6.03844 32.4368 6.03844 35.9352C6.03844 39.5606 8.2206 41.0558 12.1577 42.0545C14.2187 42.5568 15.5291 43.1167 15.5291 44.4907C15.5291 45.6799 14.5304 46.4939 12.9082 46.4939C11.1691 46.5093 9.48327 45.894 8.16288 44.762C8.10462 44.702 8.03401 44.6554 7.95596 44.6254C7.8779 44.5953 7.79425 44.5826 7.71079 44.5881C7.62734 44.5936 7.54607 44.6172 7.47262 44.6572C7.39917 44.6972 7.33529 44.7526 7.28539 44.8197L5.84793 46.9442C5.7903 47.0126 5.74762 47.0923 5.72264 47.1782C5.69766 47.264 5.69094 47.3542 5.7029 47.4428C5.71486 47.5315 5.74525 47.6166 5.7921 47.6928C5.83895 47.769 5.90123 47.8345 5.97493 47.8852C7.9335 49.4728 10.3812 50.3336 12.9025 50.3214M31.6414 40.4496H25.1468C25.314 39.6463 25.7675 38.9311 26.4228 38.4373C27.078 37.9435 27.8905 37.7046 28.7087 37.7652C29.4522 37.7399 30.176 38.0067 30.7252 38.5084C31.2744 39.0101 31.6053 39.7069 31.6472 40.4496" fill="white"/>
</g>
<defs>
<clipPath id="clip0_114_34">
<rect width="90" height="70" fill="white"/>
</clipPath>
</defs>
</svg>
