<svg width="130" height="30" viewBox="0 0 130 30" fill="none" xmlns="http://www.w3.org/2000/svg">
<g clip-path="url(#clip0_114_20)">
<path d="M94.9124 7.41589C96.8804 7.41589 98.4759 5.86027 98.4759 3.94127C98.4759 2.02229 96.8804 0.466644 94.9124 0.466644C92.9442 0.466644 91.3489 2.02229 91.3489 3.94127C91.3489 5.86027 92.9442 7.41589 94.9124 7.41589Z" fill="#231F20"/>
<path d="M72.2957 17.3693L67.0174 29.8969H61.4323C60.6614 29.8969 60.0166 29.3213 59.9506 28.5733L58.2592 8.89957H62.3004C63.5763 8.89957 64.6172 9.89746 64.6385 11.1415L65.728 23.1124L71.6898 8.89957H74.3698C75.6281 8.89957 76.6593 9.86905 76.7059 11.0961L77.1584 23.0329L83.128 8.89957H85.7594C87.48 8.89957 88.6102 10.6492 87.8684 12.1621L80.3899 29.8969H74.228C73.4279 29.8969 72.7696 29.2796 72.7404 28.4995L72.2938 17.3693H72.2957Z" fill="#231F20"/>
<path d="M90.877 8.91934H94.5861C96.0562 8.91934 97.1631 10.2278 96.8815 11.6366L93.2248 29.9186H88.4844C87.5484 29.9186 86.8435 29.0854 87.0241 28.1898L90.8789 8.92123L90.877 8.91934Z" fill="#231F20"/>
<path d="M114.165 8.91935L113.272 11.1878C112.619 12.8446 110.988 13.9372 109.168 13.9372H106.63L103.459 29.9167H99.0216C97.9282 29.9167 97.1087 28.9453 97.3165 27.8982L101.111 8.95911C101.441 7.27387 101.907 5.86128 102.511 4.72327C103.115 3.58526 103.877 2.66879 104.797 1.97197C105.716 1.27516 106.815 0.775264 108.091 0.466619C109.366 0.159867 110.856 0.0292141 112.557 0.00459823C113.497 -0.01055 114.48 0.0140664 115.276 0.0443629C116.095 0.0746593 116.643 0.875622 116.363 1.62735L115.07 5.10387C114.604 5.07736 114.15 5.05653 113.711 5.04328C113.272 5.03002 112.874 5.02434 112.516 5.02434C111.693 5.02434 111 5.07925 110.436 5.18529C109.873 5.29322 109.413 5.49204 109.058 5.78743C108.7 6.08284 108.413 6.48425 108.194 6.99172C107.974 7.50109 107.795 8.143 107.658 8.91935H114.163H114.165Z" fill="#231F20"/>
<path d="M123.471 8.91934L124.487 4.06242C124.828 2.15185 123.318 0.404123 121.329 0.409804L118.68 0.419271L114.351 21.4867C114.27 21.943 114.2 22.3842 114.146 22.8103C114.089 23.2382 114.064 23.6415 114.064 24.0145C114.064 25.8872 114.619 27.3472 115.732 28.3905C116.843 29.4338 118.622 29.9564 121.065 29.9564C121.339 29.9564 124.454 29.9508 124.454 29.9508C125.263 29.9545 125.926 29.4244 126.131 28.7237H126.13L127.489 24.8969C127.351 24.8969 127.099 24.9045 126.728 24.9178C126.357 24.931 125.945 24.9386 125.493 24.9386H123.248C122.314 24.9386 121.663 24.7776 121.292 24.4576C120.921 24.1357 120.737 23.6548 120.737 23.0129C120.737 22.5584 120.791 22.104 120.902 21.6476L122.424 13.9391H125.003C126.823 13.9391 128.454 12.8465 129.107 11.1897L130 8.91934H123.473H123.471Z" fill="#231F20"/>
<path d="M56.7565 5.98626C55.7681 5.98626 52.591 5.94461 51.9191 5.94461H47.9866C46.6699 5.94461 45.6523 6.13017 44.9396 6.5013C44.225 6.87433 43.7861 7.47268 43.623 8.30016C43.5414 8.63152 43.4987 8.94774 43.4987 9.25071C43.4987 9.88504 43.6909 10.366 44.0755 10.6974C44.46 11.0268 45.0775 11.3165 45.9281 11.5646L49.7169 12.7632C52.0492 13.5074 53.6766 14.4712 54.5971 15.6565C55.5156 16.8419 55.9759 18.2185 55.9759 19.7882C55.9759 20.5039 55.8943 21.2765 55.7292 22.104C55.4263 23.6472 54.9524 24.9215 54.3097 25.9251C53.6649 26.9325 52.8124 27.7372 51.756 28.3432C50.6995 28.9491 49.4353 29.377 47.9672 29.6232C46.499 29.8712 44.7901 29.9962 42.8404 29.9962C41.5781 29.9962 40.075 29.9811 38.3311 29.9545C37.3698 29.9394 36.3814 29.928 35.3657 29.9224C34.1442 29.9148 33.3014 28.6859 33.7345 27.5403L34.9346 24.3762C35.7308 24.4046 36.5678 24.4235 37.4456 24.4368C38.3233 24.452 39.1759 24.4576 39.9993 24.4576H43.7881C45.4348 24.4576 46.6777 24.2853 47.5147 23.9407C48.3517 23.598 48.8799 22.8879 49.0993 21.8124C49.1265 21.676 49.1479 21.5378 49.1615 21.3996C49.1751 21.2633 49.1828 21.125 49.1828 20.9868C49.1828 20.3241 48.9692 19.809 48.5439 19.436C48.1186 19.063 47.4797 18.7411 46.6292 18.4646L43.1297 17.391C41.9218 17.0047 40.9062 16.5787 40.0828 16.111C39.2594 15.6433 38.601 15.1263 38.1058 14.5602C37.6126 13.9959 37.2553 13.3767 37.0358 12.7007C36.8164 12.0247 36.7057 11.2881 36.7057 10.4891C36.7057 9.74492 36.7872 8.93259 36.9523 8.0521C37.2261 6.56379 37.7213 5.3311 38.434 4.35215C39.1467 3.37509 40.0459 2.58927 41.1314 1.9966C42.215 1.40393 43.4637 0.991138 44.8775 0.75634C46.2912 0.521543 47.8351 0.406036 49.5091 0.406036C50.2218 0.406036 54.6767 0.413611 55.5409 0.426865C55.9428 0.434439 56.4012 0.442014 56.9138 0.451482C57.8712 0.468524 58.5257 1.4399 58.1781 2.33554L56.7565 5.98626Z" fill="#231F20"/>
<path d="M29.6641 0.00494385L15.1964 0.120448C6.73526 0.188615 -0.0674641 6.93147 0.000504925 15.1835C0.0704159 23.3919 6.91781 30.0003 15.3188 30.0003H15.4469C23.4382 29.9359 29.8622 23.568 29.7981 15.778L29.6641 0.00494385ZM26.0093 15.6379C26.0326 18.4365 24.9335 21.078 22.9158 23.0795C20.8981 25.079 18.2065 26.1943 15.3363 26.2171H15.2392C12.2 26.2171 9.33751 25.0677 7.17998 22.981C5.01856 20.8906 3.81454 18.1071 3.79123 15.1418C3.76405 12.1595 4.93311 9.34572 7.07705 7.21739C9.22293 5.09096 12.0893 3.90751 15.1498 3.881L25.9103 3.79768L26.0093 15.6379Z" fill="#E55125"/>
</g>
<defs>
<clipPath id="clip0_114_20">
<rect width="130" height="30" fill="white"/>
</clipPath>
</defs>
</svg>
